# xmcd
#
# Track frame offsets:
#	150
#	18236
#	35023
#	51760
#	68080
#	85122
#	100023
#	114550
#	126713
#	141774
#	158048
#	173386
#	192161
#	208702
#	224299
#	245060
#	258510
#	274234
#	291585
#	306276
#
# Disc length: 4325
#
# Revision: 2
# Processed by: cddbd v1.5.1PL0 Copyright (c) Steve Scherf et al.
# Submitted via: audiograbber 1.81.03
# Normalized: r1:DSETVAR1
#
DISCID=2e10e314
DTITLE=Various Artist - Schlagergrüsse aus ...
DYEAR=1900
DGENRE=
TTITLE0=Brunner and Brunner - Wir sind alle über 40
TTITLE1=Henning Holm - Maddalena 2001 (Du Luder)
TTITLE2=Andrea Berg - Du hast mich tausendmal belogen
TTITLE3=Jürgen Drews - Wieder alles im Griff
TTITLE4=Rosanna Rocci - Lailola
TTITLE5=Bernhard Brink - Erst machst Du auf Liebe
TTITLE6=G. G. Anderson - Nein heisst ja
TTITLE7=Christian Franke - Ich wünsch' dir die Hölle auf Erden 2001
TTITLE8=Olaf Berger - Baila Baila
TTITLE9=Roland Kaiser - Ich geh' mit dir wohin du willst
TTITLE10=Matthias Reim - Sowieso (Für dich das Letzte)
TTITLE11=Bernd Clüver - Wer weiss...
TTITLE12=Juliane Werding - Daisy
TTITLE13=Kristina Bach - Unverschämt blaue Augen
TTITLE14=Sandy Wagner - Uh La La
TTITLE15=Scheunenrocker - Popo Salsa
TTITLE16=Matthias Carras - Ich bin dein Co-Pilot
TTITLE17=Michael Morgan - Wer die Sehnsucht kennt
TTITLE18=Pro Seco - Wilde Zeiten
TTITLE19=Caroline Beil - Sag mir wann
EXTD=
EXTT0=
EXTT1=
EXTT2=
EXTT3=
EXTT4=
EXTT5=
EXTT6=
EXTT7=
EXTT8=
EXTT9=
EXTT10=
EXTT11=
EXTT12=
EXTT13=
EXTT14=
EXTT15=
EXTT16=
EXTT17=
EXTT18=
EXTT19=
PLAYORDER=
